<?xml version="1.0" encoding="UTF-8"?><svg id="a" xmlns="http://www.w3.org/2000/svg" viewBox="0 0 45.44 20.75"><path d="M5.67,3.94C3.9,1.62,1.15.4,0,.07c5.65-.45,8.87,1.32,10.27,2.75.5.51.85,1.12,1.28,1.69,2.41,3.22,2.66,3.89,6.96,9.5,2.9,3.79,6.59,6.35,7.74,6.62-8.01.82-10.35-3.04-11.6-4.56-1.25-1.52-6.77-9.24-8.97-12.14Z" style="fill:#00aeef;"/><path d="M15.05,3.94C13.29,1.62,10.54.4,9.39.07c5.79-.47,9.03,1.41,10.37,2.85.41.45.72.98,1.09,1.46,2.5,3.32,2.7,3.93,7.04,9.61,2.9,3.79,6.59,6.35,7.74,6.62-8.01.82-10.35-3.04-11.6-4.56-1.25-1.52-6.77-9.24-8.97-12.14h0Z" style="fill:#00aeef;"/><path d="M24.86,3.94C23.09,1.62,20.35.4,19.2.07c5.59-.45,8.82,1.28,10.22,2.71.53.53.91,1.18,1.36,1.77,2.39,3.18,2.64,3.86,6.92,9.46,2.9,3.79,6.59,6.35,7.74,6.62-8.01.82-10.35-3.04-11.6-4.56s-6.77-9.24-8.97-12.14Z" style="fill:#00aeef;"/></svg>